<svg width="360" height="937" viewBox="0 0 360 937" fill="none" xmlns="http://www.w3.org/2000/svg"><g clip-path="url(#clip0_202_4086)"><path transform="translate(0 -620)" fill="#fff" d="M0 0H360V3991H0z"/><path d="M360 1155L0 773V955.5L360 1345V1155Z" fill="#EDF5FB"/><g filter="url(#filter0_d_202_4086)"><path fill="#fff" d="M0 1H360V938H0z"/></g><path d="M0 316H360V1.00001H0V316Z" fill="url(#paint0_linear_202_4086)"/><path d="M360 382L0 0V182.5L360 572V382Z" fill="#EDF5FB"/><path d="M0 762L360 379L359.525 566.5L0 952V762Z" fill="#EDF5FB"/><path fill="url(#paint1_linear_202_4086)" d="M-186.587 -557H538.587V1H-186.587z"/></g><defs><linearGradient id="paint0_linear_202_4086" x1="146.375" y1="1.396" x2="146.375" y2="316" gradientUnits="userSpaceOnUse"><stop stop-color="#EDF5FB"/><stop offset="1" stop-color="#fff" stop-opacity="0"/></linearGradient><linearGradient id="paint1_linear_202_4086" x1="286.132" y1="-315.84" x2="286.132" y2="239.901" gradientUnits="userSpaceOnUse"><stop offset=".011" stop-color="#E9C29E"/><stop offset=".247" stop-color="#C09774"/><stop offset=".495" stop-color="#DBB08F"/><stop offset=".833" stop-color="#E6BC99"/></linearGradient><clipPath id="clip0_202_4086"><path fill="#fff" transform="translate(0 -620)" d="M0 0H360V3991H0z"/></clipPath><filter id="filter0_d_202_4086" x="-79.015" y="-78.015" width="518.03" height="1095.03" filterUnits="userSpaceOnUse" color-interpolation-filters="sRGB"><feFlood flood-opacity="0" result="BackgroundImageFix"/><feColorMatrix in="SourceAlpha" values="0 0 0 0 0 0 0 0 0 0 0 0 0 0 0 0 0 0 127 0" result="hardAlpha"/><feOffset/><feGaussianBlur stdDeviation="39.508"/><feComposite in2="hardAlpha" operator="out"/><feColorMatrix values="0 0 0 0 0.584314 0 0 0 0 0.701961 0 0 0 0 0.796078 0 0 0 0.5 0"/><feBlend in2="BackgroundImageFix" result="effect1_dropShadow_202_4086"/><feBlend in="SourceGraphic" in2="effect1_dropShadow_202_4086" result="shape"/></filter></defs></svg>