<svg width="360" height="937" viewBox="0 0 360 937" fill="none" xmlns="http://www.w3.org/2000/svg"><g clip-path="url(#clip0_202_4086)"><path transform="translate(0 -1558)" fill="#fff" d="M0 0H360V3991H0z"/><path fill="#fff" d="M0 0H360V937H0z"/><path d="M0 622H360V937H0V622Z" fill="url(#paint0_linear_202_4086)"/><path d="M360 982L0 600V782.5L360 1172V982Z" fill="#EDF5FB"/><path d="M0 597L360 214L359.525 401.5L0 787V597Z" fill="#EDF5FB"/><path d="M360 217L0 -165V17.5L360 407V217Z" fill="#EDF5FB"/><g filter="url(#filter0_d_202_4086)"><path fill="#fff" d="M0 -937H360V0H0z"/></g><path d="M0 -176L360 -559L359.525 -371.5L0 14V-176Z" fill="#EDF5FB"/></g><defs><linearGradient id="paint0_linear_202_4086" x1="146.375" y1="936.604" x2="146.375" y2="622" gradientUnits="userSpaceOnUse"><stop stop-color="#EDF5FB"/><stop offset="1" stop-color="#fff" stop-opacity="0"/></linearGradient><clipPath id="clip0_202_4086"><path fill="#fff" transform="translate(0 -1558)" d="M0 0H360V3991H0z"/></clipPath><filter id="filter0_d_202_4086" x="-79.015" y="-1016.01" width="518.03" height="1095.03" filterUnits="userSpaceOnUse" color-interpolation-filters="sRGB"><feFlood flood-opacity="0" result="BackgroundImageFix"/><feColorMatrix in="SourceAlpha" values="0 0 0 0 0 0 0 0 0 0 0 0 0 0 0 0 0 0 127 0" result="hardAlpha"/><feOffset/><feGaussianBlur stdDeviation="39.508"/><feComposite in2="hardAlpha" operator="out"/><feColorMatrix values="0 0 0 0 0.584314 0 0 0 0 0.701961 0 0 0 0 0.796078 0 0 0 0.5 0"/><feBlend in2="BackgroundImageFix" result="effect1_dropShadow_202_4086"/><feBlend in="SourceGraphic" in2="effect1_dropShadow_202_4086" result="shape"/></filter></defs></svg>