<svg width="157" height="77" viewBox="0 0 157 77" fill="none" xmlns="http://www.w3.org/2000/svg"><g clip-path="url(#clip0_40_651)"><path d="M157 0.000244141L0 27.2442L9.02332 77L157 51.11V0.000244141Z" fill="#0073D4"/><path d="M126.878 63.9608H125.217V63.4066H129.203V63.9608H127.543V68.3435H126.877V63.9608H126.878ZM129.771 63.4066H130.677L132.244 67.5534L133.821 63.4066H134.727V68.3442H134.101V64.2373H134.086L132.53 68.3442H131.969L130.411 64.2373H130.397V68.3442H129.771V63.4066H129.771Z" fill="#000"/><path d="M9.72765 55.9425L15.5654 28.714H31.5751L29.8371 34.4598H21.4208L20.4332 39.0345H27.3135L26.1173 44.5784H19.2496L18.062 50.129H27.5119L26.2448 55.9425H9.72754H9.72765ZM112.927 42.4306C112.927 47.7047 109.965 56.4531 100.435 56.4531C95.6132 56.4531 92.8981 53.8347 92.8981 49.1859C92.8981 43.9861 95.7388 35.2847 105.388 35.2847C109.639 35.2847 112.927 37.3493 112.927 42.4306ZM100.083 49.8538C100.083 51.1044 100.52 51.6846 101.623 51.6846C104.473 51.6846 105.657 43.2101 105.657 41.8408C105.657 40.472 105.144 40.0088 104.112 40.0088C101.268 40.0088 100.083 48.4416 100.083 49.8537V49.8538ZM84.8981 56.4533C79.1948 56.4533 76.4357 52.8637 77.9028 46.066C79.3592 39.2295 83.5479 35.2775 89.5506 35.2775C92.4823 35.2775 94.0644 36.0249 95.7206 37.6632L91.6862 41.7619C91.097 40.9468 90.0672 40.2811 89.115 40.2811C87.5398 40.2811 86.356 41.5313 85.4873 45.6393C84.6186 49.7347 84.6872 51.4153 86.6606 51.4153C88.2123 51.4153 89.628 50.6726 90.7804 49.618L92.8344 53.6022C90.1837 55.7515 87.386 56.4533 84.8981 56.4533ZM73.0789 35.2797C78.1719 35.2797 78.6884 38.1318 78.0552 41.0604L74.8519 55.9468H67.9754L70.7433 43.0577C71.0971 41.4902 70.9077 40.7902 69.7573 40.7902C68.6516 40.7902 67.7738 41.3362 66.9067 42.6649L64.0293 55.9468H57.1507L59.8852 43.2529C60.5168 40.2021 60.7429 38.4035 60.4262 36.4132L66.5173 35.2797C66.6711 35.9428 66.834 36.6522 66.8712 37.4687C68.4554 36.101 70.8244 35.2797 73.079 35.2797H73.0789ZM57.5843 41.9994L56.0446 49.2701C55.8819 49.93 55.928 51.3362 56.8448 52.3163L51.2666 56.7319C50.435 56.2993 49.8478 55.093 49.7201 54.345C48.8144 55.288 46.7968 56.5742 44.4346 56.5742C40.2813 56.5742 38.5435 53.998 38.5435 49.698C38.5435 45.398 40.2813 40.9425 42.9253 38.3324C45.2505 36.0252 47.7488 35.2799 51.3499 35.2799C54.1461 35.2799 57.6304 35.7477 59.124 36.4914C58.5348 37.9025 57.9381 40.3224 57.5844 41.9994H57.5843ZM50.2723 40.3224C49.7558 40.3224 48.7787 40.2865 47.7844 41.416C46.3265 43.0919 45.4571 47.0368 45.4571 49.5397C45.4571 50.9095 45.8486 51.4924 46.7968 51.4924C47.6284 51.4924 49.0514 50.0805 49.2125 49.4258L51.1039 40.5953C50.86 40.3995 50.5168 40.3224 50.2723 40.3224ZM33.1604 28.4009L40.3076 27.2345C40.3908 28.2094 40.1538 30.2808 39.7115 32.2735L36.4715 47.2319C35.7301 50.7887 35.6469 51.7265 37.1864 51.7265C37.4303 51.7265 37.6659 51.689 37.9453 51.611L38.1368 55.8314C37.1493 56.1796 35.4485 56.4533 33.5482 56.4533C27.7471 56.4533 28.262 53.4858 29.1224 49.4652L32.0918 35.7066C33.1144 31.021 33.1961 29.5366 33.1605 28.401L33.1604 28.4009Z" fill="#fff"/></g><defs><clipPath id="clip0_40_651"><path fill="#fff" d="M0 0H157V77H0z"/></clipPath></defs></svg>