<svg width="1440" height="2385" viewBox="0 0 1440 2385" fill="none" xmlns="http://www.w3.org/2000/svg"><path fill="#F5F5F5" d="M0 0H1440V2385H0z"/><g clip-path="url(#clip0_0_1)"><path transform="translate(0 -800)" fill="#fff" d="M0 0H1440V3396H0z"/><path d="M0 795H223.5L947 0H455.5L0 497.5V795Z" fill="#EDF5FB"/><path d="M1440 795V494.472L981.729 0.000244141H491.905L1216 795H1440Z" fill="#EDF5FB"/><path d="M758.531 1593.26L981.531 1593.64L1440.03 1082.64V797.642H1213.53L490.031 1593.64L758.531 1593.26Z" fill="#EDF5FB"/><path d="M-0.000488281 1036.5L223.469 795H-0.000488281V1036.5Z" fill="#EDF5FB"/><path d="M1440 796V1030.5L1216 795L1440 796Z" fill="#EDF5FB"/><path d="M0 1591H1440V2386H0V1591Z" fill="url(#paint0_linear_0_1)"/><path d="M-0.000488281 2386H261L983.969 1591H492.474L-0.000488281 2136.5V2386Z" fill="#EDF5FB"/></g><defs><linearGradient id="paint0_linear_0_1" x1="585.5" y1="2385" x2="585.5" y2="1591" gradientUnits="userSpaceOnUse"><stop stop-color="#EDF5FB"/><stop offset="1" stop-color="#fff" stop-opacity="0"/></linearGradient><clipPath id="clip0_0_1"><path fill="#fff" transform="translate(0 -800)" d="M0 0H1440V3396H0z"/></clipPath></defs></svg>