<svg width="28" height="28" viewBox="0 0 28 28" fill="none" xmlns="http://www.w3.org/2000/svg"><rect width="28" height="28" rx="7" fill="#95B3CB"/><path d="M10.0474 23.2241C10.3711 23.2241 10.6118 23.0581 11.002 22.6929L13.9985 19.9536H19.6099C22.0835 19.9536 23.4116 18.5923 23.4116 16.1602V9.80176C23.4116 7.36963 22.0835 6 19.6099 6H8.91846C6.44482 6 5.1167 7.36133 5.1167 9.80176V16.1602C5.1167 18.6006 6.44482 19.9536 8.91846 19.9536H9.30859V22.3691C9.30859 22.8838 9.57422 23.2241 10.0474 23.2241ZM12.4463 16.21C12.0894 16.4756 11.666 16.2349 11.832 15.7617L12.5542 13.6201L10.6782 12.2837C10.2964 12.0098 10.4624 11.5698 10.894 11.5698H13.2017L13.8906 9.44482C14.0317 9.02148 14.5215 9.02148 14.6543 9.44482L15.335 11.5698H17.6426C18.0742 11.5698 18.2402 12.0098 17.8584 12.2837L15.999 13.6201L16.7129 15.7617C16.8706 16.2349 16.4556 16.4756 16.0903 16.21L14.2725 14.8735L12.4463 16.21Z" fill="#fff"/></svg>