<svg width="28" height="28" viewBox="0 0 28 28" fill="none" xmlns="http://www.w3.org/2000/svg"><rect width="28" height="28" rx="7" fill="#fff"/><path fill-rule="evenodd" clip-rule="evenodd" d="M14.0326 22.2814C13.7349 22.1928 13.7155 21.9839 13.4889 21.5977C12.3368 19.6351 11.573 17.4383 11.3723 15.1085L10.2914 15.4504C8.68613 15.9062 6.7443 16.1784 5.70218 17.394C5.63745 17.4699 5.5792 17.5332 5.52742 17.5902C4.91898 18.2803 4.95134 19.4325 5.06785 20.3252C5.12611 20.7937 5.30087 20.9203 5.66335 21.1355C6.58895 21.6736 7.80583 22.0788 8.83501 22.3574C12.052 23.2247 15.9097 23.2057 19.1914 22.351C20.13 22.1041 21.4375 21.6673 22.3178 21.1419C23.3017 20.5531 23.0557 18.6158 22.6091 17.7865C21.7288 16.1721 19.4115 15.9442 17.6574 15.4187C17.1849 15.2731 16.9842 15.1338 16.6088 15.0136C16.4082 16.7482 16.324 17.5079 15.7415 19.0337C15.3337 20.0973 14.6217 21.5534 14.0391 22.2877L14.0326 22.2814ZM13.1394 15.7733C13.107 16.1088 13.1588 16.7862 13.5278 16.9192C13.6508 16.9635 13.8514 16.9761 14.0132 16.9761C14.1297 16.9761 14.3433 16.9635 14.4534 16.9318C14.5828 16.8938 14.6605 16.8052 14.7252 16.6722C14.8547 16.4064 14.8935 16.0898 14.8741 15.7669C14.4275 15.5897 13.6443 15.634 13.1329 15.7733H13.1394ZM13.955 21.0089C14.0974 20.9456 14.1297 20.8886 14.2462 20.705L14.6411 19.8883C14.7252 19.7174 14.777 19.6161 14.8676 19.4515C15.0877 19.0527 15.0036 18.945 14.8935 18.4259C14.8547 18.2233 14.7382 17.5712 14.6346 17.4003L13.3918 17.3876C13.3142 17.8941 12.9841 19.0527 13.1135 19.3882C13.2365 19.7111 13.7478 20.7873 13.9614 21.0089H13.955ZM12.7834 4.04846C11.3594 4.28271 10.4079 4.89047 9.94185 6.16298C9.68941 6.84671 9.79945 7.65707 9.81887 8.40411C9.84476 9.27144 9.62468 8.92957 9.51465 9.27777C9.2881 10.0248 10.3561 10.8478 10.6021 11.8038C10.8739 12.8357 11.5018 13.95 12.3497 14.4818C12.395 14.5071 12.4274 14.5261 12.4598 14.5451C12.9452 14.8236 13.0876 14.8933 13.7025 14.9059C14.7252 14.9249 15.0618 14.8869 15.7997 14.3615C15.8127 14.3551 15.8256 14.3425 15.8385 14.3362L16.1557 14.0449C16.1622 14.0323 16.1751 14.0196 16.1816 14.0133L16.79 13.051C17.2043 12.209 17.2949 11.5062 17.4309 11.215C17.5021 11.0631 17.6056 10.9681 17.6962 10.8732C18.0458 10.5123 18.2399 10.1641 18.2917 9.59432C18.3629 8.7713 18.1105 9.25878 18.0587 8.58138C17.9551 7.17592 18.2917 6.07435 16.7383 5.00443C16.4923 4.83349 15.2819 4.39033 14.9647 4.27637C14.3239 4.04213 13.5083 3.92818 12.764 4.04846H12.7834Z" fill="#0073D4"/></svg>