<svg width="28" height="28" viewBox="0 0 28 28" fill="none" xmlns="http://www.w3.org/2000/svg"><rect width="28" height="28" rx="7" fill="#95B3CB"/><path fill-rule="evenodd" clip-rule="evenodd" d="M6.76752 15.3217L7.4594 15.6362C7.5852 15.6991 7.711 15.6991 7.83679 15.762C7.96259 15.8249 8.08839 15.8878 8.21418 15.8878C8.21418 15.8249 8.27708 15.6362 8.33998 15.5733L8.71737 14.6298C8.90606 14.1895 9.03186 13.7492 9.22055 13.309C9.53505 12.4284 9.84954 11.6107 10.2269 10.7301C10.6043 9.84955 10.9188 9.03187 11.2333 8.1513C11.3591 7.8368 12.1139 5.82405 12.2397 5.57246L21.6744 7.9626C21.8002 7.9626 21.8631 8.0255 21.9889 8.0255C21.926 8.15129 21.8631 8.33999 21.8631 8.52868C21.6744 9.15766 21.2341 10.4156 20.9825 10.9817C20.7938 11.5478 20.6051 12.1139 20.3535 12.68C20.3535 12.7429 20.2906 12.8687 20.2906 12.9316C20.0391 13.5605 19.7875 14.2524 19.5988 14.8814C19.473 15.1959 19.3472 15.5104 19.2214 15.8249C19.1585 16.0136 19.0956 16.1394 19.0327 16.2652C18.9698 16.4539 18.9069 16.5797 18.844 16.7683C18.5924 17.3973 18.3408 18.0263 18.0892 18.6553C17.9634 18.9698 17.8376 19.2843 17.7118 19.5988L17.0199 20.8567C16.957 20.9196 16.957 20.9825 16.8941 21.0454C16.7683 21.2341 16.5796 21.4228 16.391 21.5486C16.2652 21.6744 16.1394 21.7373 16.0136 21.8002C15.8249 21.8631 15.762 21.926 15.5104 21.9889C14.9443 22.0518 14.2524 22.0518 13.875 21.7373C13.3718 21.297 13.0573 20.7938 12.8687 20.102C12.8058 19.7875 12.68 19.2843 12.68 18.9069C12.4913 18.844 10.7301 18.1521 10.5414 18.0263C9.78664 17.7118 9.09476 17.4602 8.40288 17.1457C7.83679 16.957 4.25159 15.4475 4.0629 15.4475C4 15.4475 4 15.5733 4 15.762V16.8312C4 17.8376 4.62898 19.1585 5.44666 19.6617C5.57246 19.7246 5.63535 19.7875 5.76115 19.8504C6.01274 19.9762 6.26434 20.102 6.45303 20.2277L8.27708 21.1083C8.33998 21.1083 8.40288 21.1712 8.46578 21.1712C8.52867 21.2341 8.59157 21.2341 8.65447 21.2341C8.78027 21.297 8.90606 21.3599 9.03186 21.4228C9.59794 21.6744 10.2898 22.0518 10.9188 22.2405C11.2962 22.3663 11.6736 22.555 12.051 22.7437C12.5542 22.9953 13.0573 23.2469 13.6234 23.3727C13.9379 23.4356 14.2524 23.4985 14.504 23.4985H15.0701C16.391 23.4356 17.5231 22.7437 18.3408 21.4857L18.6553 20.9825C18.9069 20.5422 19.0956 20.102 19.2843 19.6617C19.7246 18.6553 20.102 17.586 20.4793 16.5797L21.7373 13.1832C21.8002 12.9945 21.8631 12.8058 21.926 12.6171L22.3663 11.4849C22.555 10.9188 22.8066 10.3527 22.9953 9.78664C23.0582 9.59795 23.1211 9.40925 23.184 9.22055C23.3098 8.84316 23.7501 7.711 23.7501 7.45941C23.7501 7.27072 23.7501 7.14492 23.6243 6.95623C23.5614 6.83043 23.4985 6.83042 23.3727 6.76753C22.8695 6.51593 15.6991 4.88058 14.8814 4.69188C14.504 4.56609 11.9881 4 11.7365 4C11.4849 4 11.2333 4.1887 11.1704 4.4403L7.96259 12.4284C7.6481 13.3089 7.27071 14.1266 6.95622 14.9443C6.89332 15.0701 6.83042 15.1959 6.83042 15.3217H6.76752ZM10.2898 16.8312C10.2898 17.6489 11.5478 17.6489 11.5478 16.8312C11.5478 16.7055 11.4849 16.5168 11.422 16.391C10.9817 15.9507 10.3527 16.2652 10.3527 16.8312H10.2898ZM14.0008 18.6553C14.1266 18.6553 14.2524 18.5295 14.3782 18.4666C14.504 18.3408 14.5669 18.2779 14.5669 18.0263C14.5669 17.7747 14.504 17.7118 14.3782 17.586C14.1895 17.3973 13.875 17.3344 13.6234 17.4602C13.3089 17.6489 13.1831 18.1521 13.5605 18.5295C13.6863 18.6553 13.875 18.6553 14.0637 18.6553H14.0008ZM11.7365 9.66085C11.7365 9.91245 11.7994 10.164 11.9881 10.3527C12.4284 10.7301 13.3718 10.6043 13.3718 9.72375C13.3718 8.96897 12.4284 8.71738 11.9881 9.15767C11.8623 9.28346 11.7365 9.47216 11.7365 9.66085ZM12.8687 7.27071V7.45941C12.8687 7.8368 13.246 8.1513 13.6234 8.1513C13.875 8.1513 14.1266 8.15129 14.3153 7.8997C14.504 7.711 14.5669 7.5852 14.5669 7.27071C14.5669 6.76753 13.9379 6.13854 13.1831 6.70463C13.0573 6.83042 12.9316 7.01912 12.9316 7.20781L12.8687 7.27071ZM14.2524 10.4785C14.2524 10.793 14.4411 11.0446 14.6927 11.1704C15.3217 11.422 15.9507 11.6107 16.6425 11.7994C16.957 11.9252 18.0892 12.2397 18.4037 12.2397C18.7182 12.2397 19.0956 11.9252 19.0956 11.4849C19.0956 10.9188 18.7182 10.8559 18.4037 10.7301C18.215 10.6672 18.0263 10.6043 17.8376 10.5414C17.4602 10.4156 15.2588 9.72375 14.9443 9.72375C14.7556 9.72375 14.5669 9.84954 14.4411 9.91244C14.3153 10.0382 14.2524 10.2269 14.2524 10.4156V10.4785ZM15.3846 8.0884C15.3846 8.33999 15.5733 8.65447 15.6991 8.71737C15.8249 8.78027 16.7683 9.09477 17.0828 9.15767L19.1585 9.78664C19.473 9.84954 19.5988 9.91245 19.8504 9.72375C19.9762 9.66085 19.9762 9.59795 20.102 9.53505C20.2906 9.28346 20.2277 8.71738 19.9762 8.52868C19.7875 8.33999 17.6489 7.77389 17.2715 7.6481C17.1457 7.5852 16.2652 7.33361 16.1394 7.33361C15.6991 7.33361 15.4475 7.7739 15.4475 8.0884H15.3846ZM11.0446 11.2962C11.1704 11.2962 11.5478 11.4849 11.6107 11.5478C11.6736 11.6736 11.6736 12.68 11.7365 12.8687L11.7994 14.0637C11.7994 14.3782 10.9188 14.5669 10.9188 15.1959C10.9188 15.4475 10.9188 15.5733 11.2333 15.762C11.5478 15.9507 13.7492 16.8313 14.3153 17.0199C14.3782 17.0199 14.7556 17.2086 14.8814 17.2086C15.0072 17.2086 15.0701 16.8312 15.0701 16.7055C15.0701 16.6426 13.4347 16.0136 13.3718 16.0136L11.6736 15.3217C11.7365 15.1959 11.7994 15.133 11.8623 15.0701L12.1139 14.8814L13.3089 15.3846C13.6234 15.5104 14.3153 15.8249 14.5669 15.8249C14.8814 15.8249 15.9507 14.8185 16.391 14.504C16.5168 14.3782 16.8941 14.1266 16.8941 13.9379C16.8941 13.6863 16.957 13.7492 16.6425 13.6234L15.762 13.2461C15.3846 13.1203 15.0072 12.9316 14.6298 12.8058L12.6171 11.9881C12.5542 11.9252 12.4284 11.9252 12.3026 11.8623C12.3026 11.7994 12.3026 11.7365 12.3026 11.4849C12.3026 11.3591 12.3026 11.2962 12.3026 11.1075C12.1139 11.0446 11.422 10.7301 11.2962 10.7301C11.2333 10.9188 11.1075 11.1075 11.1075 11.3591L11.0446 11.2962Z" fill="#fff"/></svg>