<svg width="28" height="28" viewBox="0 0 28 28" fill="none" xmlns="http://www.w3.org/2000/svg"><rect width="28" height="28" rx="7" fill="#95B3CB"/><path d="M9.89307 13.5703H19.0737C21.2153 13.5703 22.9585 12.043 22.9585 9.78516C22.9585 7.52734 21.2153 6 19.0737 6H9.89307C7.75146 6 6 7.52734 6 9.78516C6 12.043 7.75146 13.5703 9.89307 13.5703ZM9.89307 12.3169C8.49854 12.3169 7.25342 11.2959 7.25342 9.78516C7.25342 8.27441 8.49854 7.25342 9.89307 7.25342H19.0737C20.46 7.25342 21.7051 8.27441 21.7051 9.78516C21.7051 11.2959 20.46 12.3169 19.0737 12.3169H9.89307ZM9.89307 11.7524C10.9888 11.7607 11.8604 10.8643 11.8687 9.76855C11.877 8.68115 10.9888 7.80957 9.89307 7.80957C8.79736 7.80957 7.92578 8.68945 7.92578 9.77686C7.92578 10.8726 8.79736 11.7441 9.89307 11.7524ZM9.55273 21.6719H19.4141C21.3813 21.6719 22.9585 20.2939 22.9585 18.2603C22.9585 16.2266 21.3813 14.8486 19.4141 14.8486H9.55273C7.58545 14.8486 6 16.2266 6 18.2603C6 20.2939 7.58545 21.6719 9.55273 21.6719ZM19.6216 20.4185C18.4263 20.4102 17.4717 19.4473 17.4717 18.252C17.4717 17.0649 18.4263 16.1021 19.6216 16.1021C20.8169 16.1021 21.7881 17.0566 21.7798 18.2437C21.7715 19.4473 20.8169 20.4268 19.6216 20.4185Z" fill="#fff"/></svg>