<svg width="93" height="83" viewBox="0 0 93 83" fill="none" xmlns="http://www.w3.org/2000/svg"><path fill-rule="evenodd" clip-rule="evenodd" d="M52.5422 79.4152V43.3101H83.7528C83.9266 48.8038 83.7616 54.5627 83.7616 60.0686C83.7616 62.3914 83.9284 75.548 83.6475 76.6928C83.3842 77.7626 82.596 78.6107 81.7851 79.0104C80.6634 79.5636 79.3135 79.417 77.9653 79.417H52.5404L52.5422 79.4152ZM17.647 43.3519L48.8576 43.3101L48.8664 79.3856C47.2093 79.5531 27.1629 79.4152 23.6504 79.4152C22.3426 79.4152 20.9085 79.5636 19.7693 79.0784C18.9319 78.7224 18.0595 77.801 17.7751 76.7748C17.4785 75.7086 17.6417 62.4054 17.6417 60.1838C17.6417 54.6238 17.5031 48.891 17.6488 43.3519H17.647ZM52.5492 25.3107C53.6481 25.117 81.4094 25.2671 84.5972 25.2636C90.1863 25.2566 89.2823 28.9476 89.2823 33.3575C89.2823 35.4377 89.3525 37.6436 89.27 39.7098L52.5352 39.6645L52.5492 25.3124V25.3107ZM49.451 16.2953C54.4046 15.8835 58.4016 17.8816 54.9032 19.2149C54.0044 19.557 52.8652 19.7542 51.7997 19.8205C51.1783 19.8589 50.5569 19.8641 49.9355 19.8379C49.2596 19.8083 48.8278 19.8641 48.4346 19.4749C47.0163 18.0753 46.5757 19.3004 45.7752 18.8886C44.5991 18.283 45.3785 17.3563 46.3422 16.9393C47.2234 16.5571 48.403 16.3826 49.4527 16.2936L49.451 16.2953ZM57.6679 21.618C57.7276 21.515 61.0681 19.3318 59.4636 16.4803C59.0073 15.6705 59.3109 15.4576 59.6901 14.6078C61.4543 10.6602 64.7052 4.8088 69.378 3.74601C72.5798 3.01828 75.4306 4.54005 77.1052 5.99898C81.5569 9.87494 80.6686 16.681 76.3469 19.8362C73.6787 21.7838 71.6056 21.6337 67.8491 21.6337C64.5841 21.6337 60.8785 21.796 57.6679 21.6197V21.618ZM21.558 10.4421C22.1197 9.61491 22.6867 5.95361 27.2156 4.18229C30.8545 2.76 33.5104 3.8193 36.1013 6.06181C36.6841 6.56615 36.9965 7.00942 37.5741 7.60451L38.8292 9.25018C40.1317 11.2361 40.9216 12.8905 41.9099 15.0859C42.5453 16.496 41.9379 15.8573 41.6992 17.0893L41.6518 17.6967C41.2902 19.6407 42.2662 19.7751 43.1334 21.0979L42.7033 21.3126C42.6489 21.33 42.368 21.3771 42.3259 21.3841C38.5132 21.9879 34.1511 20.2969 30.8457 18.8013C29.0815 18.0021 27.514 17.0667 25.7709 16.2168C20.1396 13.4717 13.643 11.5468 7.24638 13.1191C5.39972 13.5729 0.6953 15.6095 0.103737 17.4698C-0.278935 18.6739 0.454813 19.5692 1.36059 19.7786C2.72627 20.0945 3.25113 19.0666 3.90238 18.5762C9.89524 14.0528 18.7248 16.5257 24.5316 19.6407C29.0183 22.049 36.2101 25.6911 41.8783 25.0594C43.6916 24.857 42.5225 24.9861 43.3335 25.2357L48.8664 25.2915L48.8594 39.7029L12.1404 39.6889C12.0526 37.244 12.1298 34.6559 12.1298 32.1953C12.1298 29.4153 11.7226 27.4904 13.5166 26.0524C15.0262 24.8413 18.1122 25.2583 20.2783 25.2583C22.4287 25.2583 25.8025 25.4573 27.8071 25.2217C27.3051 24.8796 26.5187 24.5812 25.9183 24.2758C24.6088 23.6074 21.314 21.6791 20.1677 21.6424C16.1286 21.515 13.3902 21.3981 10.8344 23.5027C8.1855 25.6859 8.45232 28.965 8.45232 32.1953C8.45232 35.881 8.44003 39.5667 8.45232 43.2874L13.9607 43.331V71.974C13.9607 75.4189 13.5921 77.6282 15.4036 80.054C16.75 81.8584 18.774 82.9998 22.1373 82.9963H79.4767C81.0074 82.998 82.2555 82.8148 83.4632 82.1813C84.5129 81.6298 85.4801 80.8358 86.0489 80.0138C87.7779 77.5113 87.4268 75.1833 87.4268 71.7436V52.7809C87.4268 49.8543 87.232 46.2 87.4462 43.331L92.9668 43.3258C92.9703 40.4271 92.9528 37.5249 92.944 34.6262C92.93 29.7224 93.9007 24.2287 88.1185 22.0996C85.9576 21.3039 82.489 21.7838 79.9753 21.6407C80.2702 21.2375 80.5738 20.9985 80.8986 20.5465C81.1935 20.1381 81.455 19.8344 81.7868 19.3476C85.9225 13.3041 83.4702 3.64304 75.1901 0.716445C72.959 -0.072358 70.3014 -0.248617 67.8754 0.437223C65.5759 1.08641 64.0364 2.34292 62.6655 3.57673C60.5888 5.44577 58.7861 8.2921 57.4379 10.8697C57.0131 11.6812 56.5743 12.9324 56.0986 13.6444C55.3543 13.4821 54.5732 13.1087 53.6182 12.9132C50.032 12.182 48.2468 12.8277 45.2837 13.6619C44.959 13.1261 44.5657 12.1157 44.2533 11.484C43.3809 9.70391 41.8783 7.07399 40.6495 5.69882L39.1925 4.02697C38.7063 3.52612 38.113 3.0113 37.5319 2.55408C33.1347 -0.91177 27.2366 -0.66047 23.3274 2.16491C21.0366 3.82105 18.5545 6.60804 18.1174 9.54685L21.5545 10.4421H21.558Z" fill="#738194"/></svg>