<svg width="105" height="68" viewBox="0 0 105 68" fill="none" xmlns="http://www.w3.org/2000/svg"><path fill-rule="evenodd" clip-rule="evenodd" d="M0.314941 27.4021V26.9386C0.314941 25.0888 2.49222 24.2984 4.27551 23.4086L35.1202 7.67458C35.705 7.38283 36.1508 7.15936 36.7356 6.86967L44.8496 2.76235C46.9626 1.70707 49.7349 0 51.8873 0C52.893 0 54.1289 0 55.0019 0.345553L60.0013 2.72511C67.6384 6.5386 75.3729 10.6025 82.9622 14.3539C83.5864 14.6622 83.9804 14.9208 84.6149 15.2374L100.855 23.6693C101.173 23.8597 101.365 23.9259 101.691 24.1018C102.006 24.2694 102.122 24.3729 102.421 24.526C103.391 25.0267 104.615 25.6433 104.615 27.1725C104.615 28.7326 103.966 29.3265 102.834 30.001C100.665 31.2943 96.9362 33.1896 94.6138 34.3484C93.6205 34.845 92.7621 35.2733 91.7688 35.7678C90.1908 36.5541 84.2292 39.7551 83.3853 39.9517C83.3853 43.5583 83.7378 51.3011 82.8834 53.8421C82.251 55.7209 81.1458 56.8652 79.8954 58.1129C70.8006 67.1883 51.9765 69.003 39.1036 65.4874C33.4572 63.9459 26.6849 61.1256 23.2261 56.1161C22.49 55.0505 22.4464 55.0546 21.9218 53.8504C21.6274 53.1758 21.534 53.3579 21.5382 52.3916C21.5465 50.8873 21.588 48.3464 21.4449 47.0738C21.2334 45.195 21.4283 41.9754 21.4283 39.9517L17.3889 37.9943C16.0909 37.3404 14.7472 36.7134 13.4657 36.0368C13.4657 36.7672 13.3496 36.999 13.3496 37.7646V42.9458C13.3496 43.6597 13.7581 44.9239 13.926 45.5943L15.8192 53.1468C16.066 54.1338 18.1956 62.4457 18.1956 63.3251C18.1956 65.2412 12.1344 67.658 7.54142 65.4378C4.81464 64.1218 4.95772 63.7328 5.73532 60.5607C6.2081 58.626 9.89081 44.3259 9.89081 43.5231C9.89081 41.9381 9.671 35.4699 9.92606 34.4291C10.6394 31.5446 13.2438 31.0853 15.6284 30.6569C23.2385 29.2892 40.8102 25.8047 42.4566 25.4778C44.1072 25.1509 45.7765 24.8136 47.342 24.3646C48.5281 24.0252 48.3208 23.63 49.1543 23.1789C50.5851 22.403 51.877 22.5685 53.5047 22.5685C55.6343 22.5685 58.5933 24.677 56.7396 27.2925C55.4995 29.0409 52.0449 29.2375 49.8822 28.4864C47.3752 27.6132 49.876 27.6091 45.8573 28.2939C42.3011 28.9002 38.3945 29.7693 34.747 30.4459L17.0447 33.8518C17.3329 34.2449 18.5812 34.7105 19.0996 35.025L24.4288 37.7666C24.7875 37.9529 25.111 38.106 25.5071 38.3026L36.1218 43.7135C38.1539 44.7274 50.5976 51.2349 51.0828 51.2349C54.6639 51.2349 53.4011 51.5184 56.8142 49.8155C65.5171 45.4764 74.4211 40.7401 83.1572 36.3824L94.8128 30.3962C95.2981 30.1438 95.6838 29.9017 96.2333 29.6265L99.1197 28.1326C99.6381 27.8698 100.005 27.5346 100.58 27.4021C100.233 26.8848 95.325 24.4929 94.6946 24.1784C93.6703 23.6673 92.7766 23.1645 91.7336 22.643L64.7727 8.90574C64.2232 8.62641 63.8561 8.38845 63.2755 8.09877L54.2948 3.59002C53.652 3.38311 53.0154 3.51347 52.244 3.44932C50.5976 3.30862 51.23 3.26723 48.8537 4.45287L41.3514 8.24981C40.8226 8.51881 40.4888 8.74021 39.931 9.01955L7.08731 25.753C6.40717 26.1317 4.52434 27.0131 4.24026 27.4021C4.58033 27.4932 4.89344 27.7415 5.2107 27.9298C5.6503 28.1905 6.75346 28.774 7.97066 29.3513C8.17594 29.4485 9.1692 29.6782 8.31487 30.2245C6.41753 31.437 7.35065 32.8399 5.61091 31.9688C3.55597 30.9384 1.27294 29.7093 0.773206 29.0202C0.375076 28.474 0.323236 28.0146 0.317015 27.4042L0.314941 27.4021ZM52.582 63.7804C48.7915 63.7804 45.1191 63.4224 41.4364 62.5844C39.5992 62.1664 38.2846 61.7257 36.6174 61.1773C32.6091 59.8572 27.8129 57.2273 25.5776 53.5421C24.6279 51.9757 24.8933 49.9417 24.8933 48.007C24.8933 45.9337 24.8933 43.8624 24.8933 41.7891L44.777 51.8826C46.5603 52.7723 50.0128 54.6842 52.0076 54.6842C55.1823 54.6842 57.1439 53.331 59.9681 51.9219L78.3526 42.6354C78.9104 42.3582 79.659 41.8802 80.0447 41.7912C80.0447 43.8252 80.0426 45.8592 80.0447 47.8932C80.0447 49.0561 79.9224 49.7617 79.9306 50.8873C79.9389 51.9902 79.7917 52.733 79.377 53.4427C77.8964 55.9754 75.4019 57.8749 72.7747 59.1744C72.4035 59.3585 72.2044 59.4992 71.7856 59.6855C71.3791 59.8655 71.1614 59.9958 70.7757 60.1738C68.8058 61.0904 65.8426 61.9678 63.7525 62.4913C60.3414 63.3458 56.8246 63.7804 52.5841 63.7804H52.582Z" fill="#738194"/></svg>