<svg width="77" height="92" viewBox="0 0 77 92" fill="none" xmlns="http://www.w3.org/2000/svg"><path fill-rule="evenodd" clip-rule="evenodd" d="M33.9795 68.6538C32.3333 69.2147 32.5463 70.9747 33.5147 71.6516C34.0763 72.0578 37.2332 72.1352 38.0079 71.8644C39.2861 71.4389 39.6153 69.6402 38.4727 68.8665C37.7561 68.383 34.5024 68.4604 33.9795 68.6538ZM26.2327 24.0725C35.432 23.9177 44.767 24.0725 53.9664 24.0725C58.5951 24.0725 63.2239 24.0725 67.8332 24.0725C70.0411 24.0725 71.5324 25.0976 72.1908 26.6448C72.7912 28.0761 72.5588 31.4028 72.5588 33.1628C72.5588 34.0525 72.675 84.6876 72.5201 85.0937C72.462 85.2678 70.9707 86.699 70.7964 86.8344L65.9159 81.9798C64.1341 80.2004 63.6112 80.2391 61.8875 81.9605C61.0354 82.8115 57.2975 86.6604 56.8908 86.8538L52.0684 82.0185C50.3835 80.2391 49.8218 80.2004 48.0788 81.9411L43.1208 86.8344C42.6366 86.4669 41.9781 85.732 41.5133 85.2484L38.2403 81.9798C36.4391 80.1811 35.955 80.2197 34.2119 81.9605C33.6309 82.5407 33.1274 83.0436 32.5463 83.6238C31.9653 84.204 29.7187 86.583 29.2539 86.8538C28.9053 86.525 28.6148 86.2155 28.2662 85.8674C27.8595 85.4612 27.4915 85.3838 27.5109 84.5135C27.6077 69.5241 27.5109 54.264 27.5109 39.2553C27.5109 36.5088 27.5109 33.743 27.5109 30.9966C27.5109 27.9794 27.6077 26.3547 26.2133 24.0725H26.2327ZM3.43754 3.43549H51.9909C51.9909 5.62104 52.0684 19.7594 51.9522 20.7071C41.9781 20.7071 32.0234 20.7071 22.0494 20.7071C18.4858 20.7071 15.8519 20.7265 13.431 24.0918C12.5014 25.3877 12.114 26.8769 12.1334 28.811V58.6931C12.1334 60.6272 11.3974 62.0391 10.2548 62.7547C7.1173 64.7082 3.49564 62.5226 3.49564 59.0799L3.43754 3.45483V3.43549ZM14.225 63.4703C15.6195 61.1494 15.5033 59.6408 15.5033 56.5075V31.2674C15.5033 27.9407 15.2128 26.3934 17.4012 24.8461C19.551 23.3182 22.2237 24.3432 23.2695 25.8712C24.0635 27.0123 24.1023 27.6119 24.1023 29.1979V83.8559C24.1023 85.5579 23.8505 86.3316 24.8382 87.2986C25.5742 88.0336 26.2327 88.6912 26.9686 89.4261C27.5109 89.9677 28.3243 91.1862 29.6025 90.9541C30.4741 90.7994 33.2823 87.7048 34.0376 86.9311C34.7348 86.2348 35.4514 85.4419 36.168 84.8229C36.6909 85.2484 37.2719 85.906 37.7755 86.4089L41.0485 89.6776C42.7722 91.3989 43.3338 91.4763 45.0962 89.7162L50.0349 84.8229L54.8766 89.7162C55.3221 90.1804 55.9418 91.0121 56.9683 90.9928C57.8979 90.9734 58.5177 90.1224 58.9437 89.6969C59.5247 89.1167 60.0283 88.6138 60.6093 88.0336C61.1129 87.5307 63.5531 85.0164 63.9017 84.8036L68.9759 89.871C69.4407 90.3352 70.0605 91.2829 71.3 90.9347C71.9197 90.7607 72.7525 89.7549 73.1592 89.3681C73.7596 88.7685 74.2825 88.2463 74.8635 87.6661C75.5801 86.9505 75.9481 86.8344 75.9481 85.3645V34.2266C75.9481 32.2538 76.1224 29.3139 75.9093 27.4378C75.5026 23.9177 72.5782 21.0553 68.9565 20.7458C66.8455 20.5717 56.2323 20.8425 55.3414 20.6684C55.2252 18.889 55.3221 12.3904 55.3221 10.1082C55.3221 8.32879 55.3221 6.56875 55.3221 4.78937C55.3221 -0.548782 55.7094 0.050793 49.3764 0.050793C35.1803 0.050793 21.0035 0.050793 6.80742 0.050793C0.0482956 0.050793 0.0676627 -0.742193 0.0676627 3.93836V51.7496C0.0676627 54.3607 -0.261578 59.8149 0.532474 61.9037C1.42336 64.244 3.43754 66.1974 6.32325 66.739C7.73705 67.0098 14.8641 66.8744 16.859 66.8744C17.8661 66.8744 18.4277 66.739 18.8538 66.1588C19.2992 65.5398 19.2605 64.6501 18.815 64.1086C17.9435 63.0255 15.7938 63.6057 14.1669 63.4317L14.225 63.4703ZM33.902 33.8011C32.6044 34.2846 32.3333 36.0833 33.4372 36.7796C34.27 37.3211 36.7296 37.0891 37.911 37.0891C40.9323 37.0891 65.8384 37.2244 66.5356 36.9923C67.8332 36.5668 68.0463 34.7294 67.0005 34.0138C66.187 33.4723 63.6887 33.7044 62.5266 33.7044C58.4015 33.7044 34.5605 33.5496 33.9214 33.8011H33.902ZM34.1732 42.7173C33.1855 42.8914 32.4495 43.8198 32.8368 44.9802C33.1855 46.0633 34.1151 46.102 35.432 46.102C37.1751 46.102 56.9296 46.1794 57.6461 46.0827C58.5951 45.9279 59.3698 44.9415 58.9437 43.8004C58.5564 42.7753 57.6268 42.698 56.3485 42.698C54.6249 42.698 34.8704 42.6013 34.1925 42.7367L34.1732 42.7173ZM34.0182 50.9953C32.6432 51.3628 32.2752 53.1228 33.3598 53.9352C34.2119 54.5928 36.4585 54.322 37.7174 54.322C39.6928 54.322 65.7997 54.438 66.4194 54.264C67.7364 53.9158 68.0463 52.1751 67.0586 51.3241C66.3032 50.6859 63.863 50.9373 62.701 50.9373C60.648 50.9373 34.7542 50.8213 34.0376 51.0147L34.0182 50.9953ZM43.8374 60.3564C43.0046 60.5305 42.288 61.4202 42.5204 62.4259C42.7722 63.4703 43.6243 63.7411 44.8251 63.7218C46.5875 63.7218 65.5092 63.8185 66.2645 63.6831C67.136 63.5284 67.872 62.6387 67.6008 61.5749C67.3297 60.5305 66.5163 60.3177 65.2574 60.3177C63.6306 60.3177 44.4184 60.221 43.8374 60.3564ZM43.6243 68.6731C41.9394 69.3114 42.3655 71.1488 43.237 71.6903C43.9729 72.1352 46.8393 71.9611 47.9626 71.9611C49.4538 71.9611 57.007 72.1352 57.8204 71.8837C59.1955 71.4582 59.3892 69.6982 58.2659 68.8472C57.6074 68.3636 54.5474 68.5571 53.4822 68.5571C52.0297 68.5571 44.3603 68.4023 43.6437 68.6731H43.6243ZM34.0182 60.3951C32.6044 60.7819 32.2946 62.5226 33.3985 63.3736C33.9989 63.8378 34.7155 63.7218 35.5095 63.7218C36.1099 63.7218 37.4075 63.7798 37.8917 63.6444C39.228 63.2769 39.5379 61.4782 38.4533 60.6659C37.8723 60.2404 37.1751 60.2984 36.3423 60.2984C35.6838 60.2984 34.5799 60.221 33.9989 60.3758L34.0182 60.3951Z" fill="#738194"/></svg>