<svg width="199" height="71" viewBox="0 0 199 71" fill="none" xmlns="http://www.w3.org/2000/svg"><path d="M24.3887 26.0062C24.3887 24.7622 23.5958 23.8737 22.5432 23.7096C23.4181 23.5182 24.0196 22.7254 24.0196 21.7548C24.0196 20.128 22.5295 19.0617 20.561 19.0617C18.5105 19.0617 16.7607 19.9913 16.7197 22.1649H18.7429C18.8249 21.2216 19.4947 20.7158 20.5474 20.7158C21.4222 20.7158 22.0101 21.1396 22.0101 21.8915C22.0101 22.739 21.4222 23.2175 20.2466 23.2175C20.1236 23.2175 19.8365 23.2175 19.6725 23.2038V24.6529H20.4106C21.3539 24.6529 22.2425 24.9126 22.2425 26.0199C22.2425 26.9085 21.5589 27.5783 20.561 27.5783C19.4127 27.5783 18.4968 27.0588 18.4558 25.7465H16.3369C16.3643 27.9474 17.9227 29.2187 20.561 29.2187C22.7346 29.2187 24.3887 27.8927 24.3887 26.0062Z" fill="#738194"/><path d="M30.71 19.2531H28.5091L24.8045 29H26.9917L27.7846 26.8264H31.4072L32.1727 29H34.4146L30.71 19.2531ZM30.8877 25.268H28.304L29.6027 21.6454L30.8877 25.268Z" fill="#738194"/><path d="M35.2427 19.2668V29H37.3615V25.5004H39.5488C41.5036 25.5004 43.0074 24.5162 43.0074 22.3973C43.0074 20.251 41.5446 19.2668 39.4394 19.2668H35.2427ZM37.3615 21.0166H39.2754C40.2186 21.0166 40.9295 21.3857 40.9295 22.4246C40.9295 23.5046 40.2186 23.819 39.2617 23.819H37.3615V21.0166Z" fill="#738194"/><path d="M51.6468 19.2668H44.3469V29H51.7425V27.2092H46.4658V24.8169H51.2231V23.1355H46.4658V21.0166H51.6468V19.2668Z" fill="#738194"/><path d="M59.9917 19.2668H53.2112V29H55.3438V21.0849H59.9917V19.2668Z" fill="#738194"/><path d="M69.3041 19.2668H66.8981L63.2345 26.0062H63.1935V19.2668H61.061V29H63.4669L67.1305 22.2469H67.1716V29H69.3041V19.2668Z" fill="#738194"/><path d="M79.8878 25.2407H77.7689C77.5912 26.6624 76.8256 27.4279 75.5406 27.4279C73.9685 27.4279 72.9706 26.1429 72.9706 24.1334C72.9706 22.5066 73.6951 20.8252 75.568 20.8252C76.7163 20.8252 77.5091 21.454 77.7279 22.5203H79.8194C79.6554 20.5108 77.9466 19.0344 75.609 19.0344C72.6289 19.0344 70.8244 21.29 70.8244 24.1197C70.8244 27.1955 72.6972 29.2324 75.527 29.2324C78.1927 29.2324 79.669 27.6193 79.8878 25.2407Z" fill="#738194"/><path d="M88.3173 19.2668H80.3202V21.0849H83.2456V29H85.3919V21.0849H88.3173V19.2668Z" fill="#738194"/><path d="M89.4564 19.2668V29H91.5753V25.5004H93.7625C95.7174 25.5004 97.2211 24.5162 97.2211 22.3973C97.2211 20.251 95.7584 19.2668 93.6532 19.2668H89.4564ZM91.5753 21.0166H93.4891C94.4324 21.0166 95.1432 21.3857 95.1432 22.4246C95.1432 23.5046 94.4324 23.819 93.4755 23.819H91.5753V21.0166Z" fill="#738194"/><path d="M106.804 19.2668H104.398L100.734 26.0062H100.693V19.2668H98.5607V29H100.967L104.63 22.2469H104.671V29H106.804V19.2668Z" fill="#738194"/><path d="M108.707 19.2668V29H110.826V25.5004H113.013C114.968 25.5004 116.472 24.5162 116.472 22.3973C116.472 20.251 115.009 19.2668 112.904 19.2668H108.707ZM110.826 21.0166H112.74C113.683 21.0166 114.394 21.3857 114.394 22.4246C114.394 23.5046 113.683 23.819 112.726 23.819H110.826V21.0166Z" fill="#738194"/><path d="M122.213 19.0344C119.301 19.0344 117.387 21.0576 117.387 24.1471C117.387 27.1955 119.315 29.2324 122.199 29.2324C125.056 29.2324 126.984 27.1819 126.984 24.1471C126.984 21.0986 125.056 19.0344 122.213 19.0344ZM122.186 20.7842C123.812 20.7842 124.824 22.0555 124.824 24.1061C124.824 26.1839 123.826 27.4689 122.213 27.4689C120.559 27.4553 119.547 26.1976 119.547 24.1061C119.547 22.0829 120.573 20.7842 122.186 20.7842Z" fill="#738194"/><path d="M128.437 19.2668V29H133.304C135.136 29 136.598 28.0021 136.598 26.1019C136.598 24.7486 135.833 24.0104 134.821 23.7233C135.614 23.3679 136.147 22.657 136.147 21.7138C136.147 19.9913 134.753 19.2668 133.044 19.2668H128.437ZM130.515 20.9209H132.456C133.277 20.9209 134.069 21.0849 134.069 22.0692C134.069 23.0534 133.236 23.2038 132.456 23.2038H130.515V20.9209ZM130.515 24.6529H132.552C133.509 24.6529 134.466 24.8032 134.466 25.9789C134.466 27.1272 133.577 27.3049 132.661 27.3049H130.515V24.6529Z" fill="#738194"/><path d="M142.916 19.2531H140.715L137.01 29H139.197L139.99 26.8264H143.613L144.378 29H146.62L142.916 19.2531ZM143.093 25.268H140.51L141.808 21.6454L143.093 25.268Z" fill="#738194"/><path d="M153.651 19.2668H145.654V21.0849H148.58V29H150.726V21.0849H153.651V19.2668Z" fill="#738194"/><path d="M162.624 25.8695C162.624 23.7506 161.12 22.7664 159.165 22.7664H156.868V19.2668H154.75V29H159.056C161.161 29 162.624 28.0157 162.624 25.8695ZM160.546 25.8422C160.546 26.8811 159.917 27.2502 158.892 27.2502H156.868V24.4478H158.878C159.835 24.4478 160.546 24.8169 160.546 25.8422Z" fill="#738194"/><path d="M172.589 25.2407H170.47C170.293 26.6624 169.527 27.4279 168.242 27.4279C166.67 27.4279 165.672 26.1429 165.672 24.1334C165.672 22.5066 166.397 20.8252 168.269 20.8252C169.418 20.8252 170.211 21.454 170.429 22.5203H172.521C172.357 20.5108 170.648 19.0344 168.31 19.0344C165.33 19.0344 163.526 21.29 163.526 24.1197C163.526 27.1955 165.399 29.2324 168.228 29.2324C170.894 29.2324 172.37 27.6193 172.589 25.2407Z" fill="#738194"/><path d="M178.648 25.186H179.919V29H182.038V19.2668H177.267C175.476 19.2668 173.918 20.169 173.918 22.2469C173.918 23.8053 174.861 24.7349 176.146 25.063L173.125 29H175.805L178.648 25.186ZM179.919 23.6413H177.896C176.898 23.6413 176.01 23.4636 176.01 22.2606C176.01 21.1396 176.898 20.9482 177.8 20.9482H179.919V23.6413Z" fill="#738194"/><path fill-rule="evenodd" clip-rule="evenodd" d="M158.044 27.5077C157.924 27.4372 157.799 27.3783 157.67 27.3314C157.49 27.2659 157.304 27.224 157.118 27.207C157.111 27.2063 157.103 27.2057 157.096 27.2051C156.139 27.1275 155.2 27.7084 155.2 29.1041L155.212 29.1161C155.212 29.5682 155.502 30.0014 155.802 30.4483C156.342 31.2543 156.912 32.1053 155.864 33.1937C155.529 33.5405 155.224 33.7856 154.583 33.7856C153.377 33.7856 152.623 32.9228 151.897 32.0908C151.221 31.3165 150.568 30.569 149.595 30.569C148.524 30.569 147.721 31.4419 147.721 32.3328C147.721 33.0208 148.044 33.4096 148.361 33.7913C148.667 34.1593 148.967 34.5206 148.967 35.1369C148.967 36.8349 147.111 38.0427 145.614 36.5121C145.381 36.2757 145.179 36.0757 144.968 35.8658C144.858 35.7572 144.746 35.6459 144.626 35.5255C144.557 35.4566 144.486 35.384 144.414 35.3094C143.838 34.7165 143.137 33.9949 142.105 33.9949C141.38 33.9949 140.44 34.7363 140.44 35.4478C140.44 36.652 140.795 37.0351 141.118 37.3843C141.391 37.6783 141.641 37.9484 141.638 38.6645C141.632 39.1667 141.416 39.7168 141.087 40.0396C139.632 41.4815 138.279 40.0428 137.56 39.2784C137.48 39.1933 137.408 39.1166 137.345 39.0531L127.471 29.1938C127.363 29.0854 127.256 28.9708 127.148 28.8544C126.621 28.2905 126.053 27.6832 125.19 27.5197C124.166 27.3224 123.082 28.1116 123.082 29.2177C123.082 30.1741 123.684 30.7409 124.233 31.257C124.329 31.3475 124.424 31.4364 124.513 31.5256L130.022 37.0262C131.679 38.6773 133.299 40.2966 134.93 41.9264C135.75 42.7459 136.573 43.5681 137.405 44.3983C137.549 44.5422 137.817 44.8029 138.161 45.1367C139.658 46.5915 142.585 49.4345 142.877 50.0424C143.095 50.4977 143.135 50.9798 143.034 51.4128C142.927 51.8725 142.661 52.277 142.278 52.5357C141.728 52.9081 141.124 52.928 140.472 52.8807C140.328 52.8703 140.183 52.8568 140.035 52.843C139.699 52.8116 139.351 52.7791 138.991 52.7808C138.303 52.7839 137.717 52.7565 137.137 52.7294C136.597 52.7042 136.062 52.6792 135.453 52.6792C135.142 52.6792 134.77 52.6481 134.37 52.6146C132.593 52.4659 130.255 52.2704 130.255 54.5446C130.255 56.1084 131.158 56.296 132.423 56.559C132.633 56.6027 132.854 56.6485 133.081 56.703C135.159 57.1933 138.195 58.2695 140.219 59.0228C140.639 59.1802 141.068 59.3349 141.502 59.4914C142.205 59.7451 142.921 60.0033 143.632 60.2844L147.158 61.54C147.324 61.5949 147.496 61.6525 147.675 61.7123C151.486 62.986 158.221 65.237 161.858 63.3695C162.367 63.1085 162.924 62.5122 163.408 61.9936C163.567 61.8231 163.719 61.6611 163.858 61.522C163.971 61.408 164.299 61.0846 164.755 60.6364C166.567 58.8518 170.39 55.0883 170.624 54.6821C171.582 53.0259 172.564 49.3907 172.564 47.0649C172.564 43.5971 171.756 41.648 170.025 39.4238C169.617 38.8988 168.958 38.2735 168.357 37.7033C168.103 37.4618 167.858 37.2302 167.648 37.0203C167.435 36.8059 167.049 36.4167 166.551 35.9141C163.993 33.3325 158.47 27.758 158.044 27.5077ZM146.955 27.3044C147.6 26.9844 148.155 26.8041 148.683 26.7233C149.643 26.5763 150.512 26.7593 151.667 27.0294C151.677 26.9145 151.707 26.7913 151.753 26.6631C152.055 25.8235 153.055 24.7661 153.595 24.3927C155.679 22.9577 158.236 22.9697 160.355 24.3748C161.265 24.9786 172.6 36.3626 173.48 37.5345C173.929 38.1264 174.875 39.5494 175.055 40.3206L188.225 40.3209C188.389 40.3209 188.561 40.325 188.738 40.3292C190.196 40.3635 191.967 40.4053 191.967 38.2462V9.02702C191.967 7.81329 191.189 6.95232 190.099 6.95232L8.71824 6.95209C7.62848 6.95209 6.85008 7.81307 6.85008 9.0268V38.246C6.85008 39.4657 7.54465 40.1951 8.62842 40.3087C9.50861 40.3984 116.1 40.3565 123.495 40.3326L124.32 41.1591L127.315 44.1591L10.4906 44.1592C10.3844 44.1592 10.2789 44.1594 10.174 44.1595C7.62361 44.1643 5.46231 44.1683 3.74846 41.3371C3.42513 40.8109 3 39.7826 3 38.9694V8.29736C3 7.54401 3.40716 6.49769 3.69457 5.97752C4.82624 3.9387 6.86804 3 9.44873 3L189.476 3.00023C191.488 3.00023 192.733 3.53235 193.859 4.43518C194.709 5.12276 195.817 6.79687 195.817 8.29161V38.9637C195.817 41.4868 193.147 44.1534 190.62 44.1534L176.306 44.1532C176.306 44.5112 176.331 44.7624 176.357 45.0161C176.382 45.2749 176.408 45.5365 176.408 45.917V47.7824C176.408 50.6284 174.78 56.0274 173.474 57.4145C172.33 58.629 170.745 60.1844 169.263 61.6385C168.542 62.3462 167.845 63.0299 167.235 63.6386C166.918 63.9554 166.631 64.2529 166.362 64.5324C164.979 65.9674 164.055 66.9263 161.81 67.5668C160.927 67.8184 160.536 67.8412 160.082 67.8678C159.813 67.8836 159.522 67.9007 159.092 67.9674C158.427 68.069 156.912 67.9076 156.236 67.8299M179.408 47.1532L190.62 47.1534C192.894 47.1534 194.914 45.9974 196.286 44.6276C197.657 43.2581 198.817 41.2395 198.817 38.9637V8.29161C198.817 6.8572 198.307 5.55529 197.781 4.60625C197.252 3.65139 196.53 2.73688 195.746 2.10248L195.736 2.09488C194.072 0.760386 192.163 0.000225067 189.476 0.000225067L9.44874 0C6.10411 0 2.87344 1.27529 1.07155 4.52159L1.06873 4.52667C0.824462 4.96877 0.578387 5.53615 0.388337 6.11682C0.209177 6.66421 0 7.46119 0 8.29736V38.9694C0 39.8395 0.214536 40.6534 0.417513 41.2407C0.626357 41.8451 0.900862 42.4314 1.18682 42.8985C2.43208 44.952 4.02727 46.1611 5.92046 46.7276C7.4102 47.1733 8.99554 47.1658 10.1433 47.1603C10.2641 47.1597 10.3801 47.1592 10.4906 47.1592L127.254 47.1591C124.941 48.7282 123.61 51.2843 123.372 53.8277C123.053 57.2448 124.68 60.9572 128.639 62.6295L128.645 62.6321C129.578 63.0238 130.498 63.2126 131.181 63.3528C131.337 63.3848 131.48 63.4143 131.609 63.4431C132.108 63.5582 132.437 63.6616 132.868 63.7974C133.117 63.8757 133.4 63.9647 133.769 64.0729L140.536 66.4776C144.717 68.1291 151.421 70.2872 155.887 70.8096L155.893 70.8103C156.244 70.8506 156.847 70.9167 157.464 70.9589C157.983 70.9945 158.841 71.0406 159.545 70.9329L159.552 70.9319C159.835 70.8879 159.961 70.8807 160.172 70.8686C160.278 70.8625 160.406 70.8551 160.587 70.8412C161.164 70.7968 161.753 70.7024 162.632 70.4522L162.633 70.4517C165.705 69.5754 167.188 68.0209 168.607 66.5331C168.855 66.2725 169.102 66.014 169.355 65.7615C169.922 65.1955 170.592 64.5382 171.297 63.8455C172.804 62.3674 174.474 60.7282 175.658 59.4713L175.659 59.4704C176.339 58.7474 176.851 57.7728 177.218 56.9577C177.619 56.0679 177.988 55.0483 178.301 54.0169C178.909 52.0166 179.408 49.6317 179.408 47.7824V47.1532ZM141.59 63.6685L134.692 61.2171C134.411 61.1356 134.15 61.054 133.893 60.9738C133.378 60.8128 132.88 60.6572 132.273 60.5176C132.052 60.4679 131.845 60.4249 131.648 60.3838C130.992 60.2472 130.442 60.1326 129.806 59.8659C124.597 57.6656 125.585 50.3653 130.525 48.8945C131.041 48.7406 131.456 48.6629 131.882 48.6397C132.301 48.617 132.73 48.6469 133.279 48.7091C133.72 48.7583 134.168 48.747 134.609 48.7358C135.186 48.7211 135.753 48.7067 136.279 48.8287L133.081 45.5821C132.927 45.4279 132.781 45.2707 132.642 45.1207C132.607 45.0823 132.571 45.0444 132.537 45.0071C132.524 44.9938 132.512 44.9806 132.499 44.9674C132.488 44.955 132.476 44.9427 132.465 44.9304H132.537L129.542 41.9304H129.329L126.872 39.4691V39.2564L126.766 39.3626L124.735 37.3286L123.485 37.3326C122.97 37.3343 121.971 37.336 120.558 37.3378C120.015 36.7976 119.495 36.2707 119.049 35.8014C118.555 35.2816 117.999 34.6753 117.652 34.1705L120.124 32.4703L117.652 34.1693L117.652 34.1705C115.021 30.3459 115.92 24.7472 120.145 21.9844C122.693 20.3147 125.763 20.2802 128.29 21.2898L128.301 21.2942C129.411 21.7427 129.995 22.2037 130.522 22.6203C130.578 22.6647 130.633 22.7085 130.689 22.7518L130.69 22.7525C131.223 23.1695 131.997 23.9194 132.74 24.6589C133.533 25.4474 134.602 26.5431 135.485 27.4488C135.979 27.9551 136.458 28.4464 136.901 28.8969C136.936 28.8686 136.969 28.8416 137.002 28.8159L137.006 28.8124C138.137 27.9197 139.643 27.4279 140.948 27.2288C141.445 27.153 142.006 27.1055 142.594 27.1168C142.731 26.9424 142.87 26.7789 143.007 26.6272C143.734 25.826 144.647 25.1009 145.62 24.6177L145.622 24.6169C146.864 24.0007 148.037 23.6858 149.288 23.6716C149.55 23.6687 149.808 23.6795 150.06 23.7004C150.066 23.6936 150.071 23.6869 150.076 23.6803C150.596 23.0268 151.268 22.3543 151.889 21.925L151.894 21.9219C155.018 19.77 158.906 19.8146 162.013 21.8742L162.014 21.875C162.383 22.1201 162.872 22.5746 163.189 22.8701C163.61 23.2626 164.149 23.7783 164.757 24.3696C165.977 25.5549 167.518 27.0831 169.054 28.6239C170.59 30.165 172.129 31.7279 173.343 32.9832C174.457 34.1357 175.503 35.2361 175.872 35.7242C176.162 36.1066 176.571 36.6995 176.942 37.3189L176.943 37.3207L188.225 37.3209C188.428 37.3209 188.64 37.326 188.814 37.3301L188.89 37.3319C188.916 37.3325 188.942 37.3331 188.967 37.3336V9.95232L9.85008 9.9521V37.3232C9.89822 37.3235 9.94783 37.3238 9.9989 37.3241C10.825 37.3287 12.015 37.3328 13.5209 37.3365C16.5316 37.3439 20.7945 37.3495 25.9102 37.3536C36.1412 37.362 49.7777 37.3644 63.6186 37.3633C87.438 37.3613 111.853 37.3489 120.558 37.3378C120.678 37.4574 120.8 37.5777 120.922 37.6982C121.502 38.272 122.084 38.8409 122.634 39.3783C122.932 39.6696 123.221 39.9517 123.495 40.2203C123.514 40.239 123.533 40.2576 123.552 40.2762C123.874 40.5922 124.174 40.8889 124.444 41.1591H124.32M127.315 43.9465L129.096 45.7304L129.437 46.0917C128.658 46.3463 127.95 46.6951 127.315 47.1179M130.441 47.1591H130.008L130.525 48.8945M130.441 47.1591C130.583 47.3121 130.775 47.5177 130.952 47.6953C130.955 47.6985 130.958 47.7018 130.962 47.705M132.465 45.071V45.0022L132.43 45.0365L132.465 45.071ZM139.5 36.5C139.213 36.9086 144.28 30.0383 144.183 30.4554C143.779 30.2629 143.294 30.1582 142.778 30.1259C141.368 30.0379 139.724 30.4887 138.866 31.1669C138.616 31.3647 138.296 31.6376 137.995 31.9452C137.596 32.3535 137.231 32.823 137.111 33.2595C136.807 33.0553 135.93 32.1885 134.846 31.0864C134.374 30.6065 133.863 30.0819 133.342 29.548C131.523 27.6827 129.594 25.7037 128.842 25.1161C128.78 25.0679 128.722 25.022 128.666 24.978C128.176 24.5918 127.882 24.3603 127.178 24.0758C125.411 23.3703 123.393 23.442 121.789 24.4943M146.955 27.3044C146.169 27.6949 140.057 35.708 139.5 36.5ZM161.731 59.4063C161.851 59.286 162.195 58.947 162.664 58.4851C163.354 57.8051 164.315 56.8589 165.227 55.9523C166.016 55.1675 166.786 54.3956 167.372 53.793C167.667 53.4898 167.902 53.2441 168.064 53.0674C168.086 53.0438 168.105 53.0227 168.122 53.0039C168.397 52.4654 168.75 51.523 169.05 50.3706C169.38 49.0983 169.564 47.8791 169.564 47.0649C169.564 45.5675 169.39 44.5651 169.111 43.7666C168.834 42.9721 168.397 42.216 167.658 41.266L167.657 41.2647C167.508 41.0741 167.227 40.7778 166.798 40.3624C166.672 40.2403 166.515 40.0913 166.349 39.9337C166.066 39.6644 165.756 39.3701 165.528 39.1431L165.524 39.1383C165.293 38.9066 164.896 38.5058 164.388 37.9933C163.364 36.96 161.891 35.4728 160.423 34.0028C160.057 33.6363 159.694 33.2744 159.344 32.9253C159.135 33.8497 158.64 34.6359 158.026 35.2742L158.021 35.2791C157.805 35.5021 157.375 35.9373 156.738 36.2732C156.047 36.6379 155.317 36.7856 154.583 36.7856C153.51 36.7856 152.613 36.4754 151.885 36.0596C151.607 37.6212 150.633 39.0046 149.184 39.723C147.672 40.4726 145.98 40.347 144.565 39.4851C144.399 40.4447 143.951 41.4288 143.196 42.1735C142.542 42.8201 141.742 43.3175 140.817 43.5356C141.301 44.0064 141.861 44.554 142.412 45.1032C143.034 45.7222 143.666 46.3632 144.174 46.9085C144.426 47.1792 144.671 47.4508 144.877 47.6984L144.879 47.7013C145.018 47.8676 145.356 48.2739 145.581 48.7427L145.583 48.7478C146.36 50.3713 146.218 52.2565 145.276 53.6884L145.667 54.0856L145.089 53.9517C144.781 54.3577 144.403 54.7202 143.959 55.0206C142.723 55.8563 141.46 55.9231 140.639 55.894C140.548 55.8908 140.457 55.886 140.367 55.8803C140.685 55.9964 140.987 56.1076 141.265 56.2113L141.271 56.2133C141.619 56.3436 142.016 56.4873 142.437 56.6394C143.164 56.9018 143.959 57.1891 144.685 57.4751L148.135 58.7032C148.291 58.7551 148.451 58.8086 148.615 58.8634C150.45 59.4759 152.755 60.2457 155.053 60.706C157.687 61.2339 159.502 61.1722 160.433 60.7281C160.44 60.7222 160.449 60.7148 160.46 60.7059C160.532 60.6458 160.633 60.5528 160.77 60.4151C160.906 60.2776 161.045 60.1288 161.21 59.9517C161.359 59.7924 161.548 59.5896 161.731 59.4063ZM160.49 60.6998L160.488 60.7007ZM132.412 55.5713C132.412 55.5713 132.418 55.5693 132.43 55.5666C132.419 55.5702 132.412 55.5713 132.412 55.5713ZM156.231 29.8944C156.209 29.8769 156.197 29.8659 156.197 29.8659C156.197 29.8659 156.208 29.8742 156.231 29.8944ZM168.215 52.899C168.243 52.8639 168.249 52.8598 168.217 52.8971L168.215 52.899Z" fill="url(#paint0_linear_118_22)"/><path fill-rule="evenodd" clip-rule="evenodd" d="M155.2 29.1041C155.2 27.2327 156.888 26.8261 158.044 27.5077C158.553 27.8067 166.337 35.7049 167.648 37.0203C168.355 37.7258 169.445 38.6764 170.025 39.4238C171.756 41.648 172.564 43.5971 172.564 47.0649C172.564 49.3907 171.582 53.0259 170.624 54.6821C170.331 55.1903 164.421 60.954 163.858 61.522C163.295 62.0841 162.535 63.0228 161.858 63.3695C158.05 65.3247 150.847 62.7657 147.158 61.54L143.632 60.2844C142.482 59.83 141.32 59.4354 140.219 59.0228C138.195 58.2695 135.159 57.1933 133.081 56.703C131.483 56.3203 130.255 56.3682 130.255 54.5446C130.255 51.7584 133.764 52.6792 135.453 52.6792C136.716 52.6792 137.662 52.7868 138.991 52.7808C140.231 52.7748 141.332 53.1754 142.278 52.5357C143.021 52.0334 143.326 50.9811 142.877 50.0424C142.518 49.2951 138.177 45.1696 137.405 44.3983C134.92 41.917 132.513 39.5075 130.022 37.0262L124.513 31.5256C123.914 30.9277 123.082 30.3418 123.082 29.2177C123.082 28.1116 124.166 27.3224 125.19 27.5197C126.232 27.717 126.842 28.56 127.471 29.1938L137.345 39.0531C137.979 39.6869 139.47 41.642 141.087 40.0396C141.416 39.7168 141.632 39.1667 141.638 38.6645C141.644 37.098 140.44 37.666 140.44 35.4478C140.44 34.7363 141.38 33.9949 142.105 33.9949C143.266 33.9949 144.009 34.9097 144.626 35.5255C144.979 35.8783 145.26 36.1533 145.614 36.5121C147.111 38.0427 148.967 36.8349 148.967 35.1369C148.967 33.8813 147.721 33.684 147.721 32.3328C147.721 31.4419 148.524 30.569 149.595 30.569C151.613 30.569 152.254 33.7856 154.583 33.7856C155.224 33.7856 155.529 33.5405 155.864 33.1937C157.493 31.5017 155.212 30.3836 155.212 29.1161L155.2 29.1041ZM151.667 27.0294C149.877 26.6109 148.775 26.4016 146.955 27.3044C145.763 27.8964 144.47 29.2297 144.183 30.4554C142.68 29.7379 140.039 30.2401 138.866 31.1669C138.285 31.6272 137.321 32.4942 137.111 33.2595C136.213 32.6556 130.303 26.2581 128.842 25.1161C128.237 24.6438 127.962 24.3927 127.178 24.0758C125.411 23.3703 123.393 23.442 121.789 24.4943C118.998 26.3179 118.43 30.0069 120.124 32.4703C120.896 33.5943 124.884 37.3371 126.782 39.2564H126.872L132.537 44.9304H132.465C132.656 45.1337 132.86 45.3609 133.081 45.5821L136.279 48.8287C135.351 48.6135 134.297 48.8227 133.279 48.7091C132.171 48.5836 131.549 48.5895 130.525 48.8945C125.585 50.3653 124.597 57.6656 129.806 59.8659C130.632 60.2127 131.315 60.3023 132.273 60.5176C133.183 60.7268 133.848 60.972 134.692 61.2171L141.59 63.6685C145.697 65.2948 152.146 67.3516 156.236 67.8299C156.912 67.9076 158.427 68.069 159.092 67.9674C160.247 67.788 160.403 67.9674 161.81 67.5668C164.493 66.8015 165.289 65.5818 167.235 63.6386C169.097 61.7791 171.774 59.2201 173.474 57.4145C174.78 56.0274 176.408 50.6284 176.408 47.7824V45.917C176.408 45.1636 176.306 44.8766 176.306 44.1532L190.62 44.1534C193.147 44.1534 195.817 41.4868 195.817 38.9637V8.29161C195.817 6.79687 194.709 5.12276 193.859 4.43518C192.733 3.53235 191.488 3.00023 189.476 3.00023L9.44873 3C6.86804 3 4.82624 3.9387 3.69457 5.97752C3.40716 6.49769 3 7.54401 3 8.29736V38.9694C3 39.7826 3.42513 40.8109 3.74846 41.3371C5.53279 44.2847 7.80212 44.1592 10.4906 44.1592L127.315 44.1591L123.495 40.3326C116.1 40.3565 9.50861 40.3984 8.62842 40.3087C7.54465 40.1951 6.85008 39.4657 6.85008 38.246V9.0268C6.85008 7.81307 7.62848 6.95209 8.71824 6.95209L190.099 6.95232C191.189 6.95232 191.967 7.81329 191.967 9.02702V38.2462C191.967 40.6677 189.74 40.3209 188.225 40.3209L175.055 40.3206C174.875 39.5494 173.929 38.1264 173.48 37.5345C172.6 36.3626 161.265 24.9786 160.355 24.3748C158.236 22.9697 155.679 22.9577 153.595 24.3927C152.972 24.8232 151.739 26.1625 151.667 27.0294Z" fill="#738194"/><defs><linearGradient id="paint0_linear_118_22" x1="5.5" y1="20" x2="196" y2="20" gradientUnits="userSpaceOnUse"><stop stop-color="#FBFDFE"/><stop offset="1" stop-color="#EDF5FB"/></linearGradient></defs></svg>